<svg id="Capa_1" enable-background="new 0 0 512.01 512.01" height="512" viewBox="0 0 512.01 512.01" width="512" xmlns="http://www.w3.org/2000/svg"><g><g><g><g><path d="m430.585 440.955c-7.13 4.12-16.32 1.73-20.49-5.49l-15-25.98c-4.15-7.17-1.69-16.35 5.49-20.49 7.17-4.14 16.35-1.68 20.49 5.49l15 25.98c4.14 7.18 1.68 16.35-5.49 20.49z" fill="#ffcc91"/></g></g></g><path d="m430.585 440.955-30-51.96c7.17-4.14 16.35-1.68 20.49 5.49l15 25.98c4.14 7.18 1.68 16.35-5.49 20.49z" fill="#ff9100"/><g><path d="m116.915 409.485-15 25.98c-4.15 7.2-13.33 9.62-20.49 5.49-7.17-4.14-9.63-13.31-5.49-20.49l15-25.98c4.14-7.17 13.32-9.63 20.49-5.49 7.18 4.14 9.64 13.32 5.49 20.49z" fill="#ffcc91"/></g><path d="m116.915 409.485-15 25.98c-4.15 7.2-13.33 9.62-20.49 5.49l30-51.96c7.18 4.14 9.64 13.32 5.49 20.49z" fill="#ff9100"/><path d="m509.885 323.695c-1.37 2.29-34.22 56.59-94.3 91.28-60.09 34.69-123.54 35.99-126.21 36.03h-.22c-9.87 0-17.03-9.38-14.48-18.88 6.04-22.56 2.94-46.12-8.74-66.34l-21.92-37.97c-4.14-7.18-9.19-170.92-2.01-175.06l24.59 4.16 109.24 18.51c6.23-5.46 15.71-4.84 21.17 1.39 4.51 5.16 8.56 10.8 12.01 16.79l38.79 67.18c11.67 20.22 30.53 34.69 53.08 40.73 9.62 2.58 14.09 13.65 9 22.18z" fill="#fcf2b6"/><path d="m509.885 323.695c-1.37 2.29-34.22 56.59-94.3 91.28l-148.99-258.06 109.24 18.51c6.23-5.46 15.71-4.84 21.17 1.39 4.51 5.16 8.56 10.8 12.01 16.79l38.79 67.18c11.67 20.22 30.53 34.69 53.08 40.73 9.62 2.58 14.09 13.65 9 22.18z" fill="#ffcc91"/><path d="m284.865 298.605-38.79 67.18c-11.68 20.22-14.78 43.78-8.74 66.34 2.55 9.5-4.6 18.88-14.48 18.88h-.22c-2.67-.04-66.12-1.34-126.21-36.03-60.08-34.69-92.93-88.99-94.3-91.28-5.1-8.56-.6-19.61 9-22.18 22.55-6.04 41.41-20.51 53.08-40.73l38.79-67.18c3.45-5.99 7.5-11.63 12.01-16.79 5.46-6.23 14.94-6.85 21.17-1.39l74.76-19c2.87-7.77 11.5-11.74 19.27-8.88 5.58 2.06 11.03 4.63 16.22 7.62 24.29 14.03 41.67 36.67 48.93 63.76 7.25 27.09 3.53 55.39-10.49 79.68z" fill="#fcf2b6"/><path d="m284.865 298.605-38.79 67.18c-11.68 20.22-14.78 43.78-8.74 66.34 2.55 9.5-4.6 18.88-14.48 18.88h-.22c-2.67-.04-66.12-1.34-126.21-36.03l150-259.81c24.29 14.03 41.67 36.67 48.93 63.76 7.25 27.09 3.53 55.39-10.49 79.68z" fill="#ffcc91"/><g><path d="m346.005 271.005h-60c-6.46 0-12.19-4.13-14.23-10.26l-15.77-47.31-15.77 47.31c-2.04 6.13-7.77 10.26-14.23 10.26h-60c-10.22 0-17.47-10.03-14.23-19.74l21.98-65.96c2.62-7.86 11.12-12.1 18.98-9.48l50.65-17.91c1.78-2.79 4.49-5.01 7.88-6.14l4.53 1.75.21-.07 4.74-1.68c3.67 1.22 6.54 3.73 8.3 6.86l69.21 26.67 21.98 65.96c3.23 9.7-3.99 19.74-14.23 19.74z" fill="#ff468c"/><path d="m346.005 271.005h-60c-6.46 0-12.19-4.13-14.23-10.26l-15.77-47.31v-59.98l4.74-1.68c3.67 1.22 6.54 3.73 8.3 6.86l69.21 26.67 21.98 65.96c3.23 9.7-3.99 19.74-14.23 19.74z" fill="#e30a6c"/><g><path d="m216.005 96.005c-36.543-36.543-79.334-34.852-80-35-3.692 0-7.255 1.362-10.006 3.825-1.429 1.279-34.994 31.788-34.994 71.175s33.565 69.895 34.994 71.175c2.751 2.463 6.314 3.825 10.006 3.825 1.998-.443 43.9 1.101 80-35l20.606-20.607v-38.787z" fill="#ff6e7c"/><path d="m296.005 96.005c36.543-36.543 79.334-34.852 80-35 3.692 0 7.255 1.362 10.006 3.825 1.429 1.279 34.994 31.788 34.994 71.175s-33.565 69.895-34.994 71.175c-2.751 2.463-6.314 3.825-10.006 3.825-1.998-.443-43.9 1.101-80-35l-20.606-20.607v-38.787z" fill="#ff468c"/></g><g><path d="m216.005 96.005h80v80h-80z" fill="#ffa17a"/></g><path d="m256.005 96.005h40v80h-40z" fill="#ff6e7c"/></g></g></svg>